PathFileType	4	(X/Y/Z)	..\data\2015035\dynamic\2015035_C4_03.trc
DataRate	CameraRate	NumFrames	NumMarkers	Units	OrigDataRate	OrigDataStartFrame	OrigNumFrames
100.000000	100.000000	4	52	mm	100.000000	67	179
Frame#	Time	L_IAS			L_IPS			R_IPS			R_IAS			L_FTC			L_FLE			L_FME			L_FAX			L_TTC			L_FAL			L_TAM			L_FCC			L_FM1			L_FM2			L_FM5			R_FTC			R_FLE			R_FME			R_FAX			R_TTC			R_FAL			R_TAM			R_FCC			R_FM1			R_FM2			R_FM5			CV7			TV10			SXS			SJN			L_SIA			L_SRS			L_SAA			L_SAE			L_HLE			L_HME			L_UOA			L_RSP			L_UHE			L_HM2			L_HM5			R_SIA			R_SRS			R_SAA			R_SAE			R_HLE			R_HME			R_UOA			R_RSP			R_UHE			R_HM2			R_HM5			
		X1	Y1	Z1	X2	Y2	Z2	X3	Y3	Z3	X4	Y4	Z4	X5	Y5	Z5	X6	Y6	Z6	X7	Y7	Z7	X8	Y8	Z8	X9	Y9	Z9	X10	Y10	Z10	X11	Y11	Z11	X12	Y12	Z12	X13	Y13	Z13	X14	Y14	Z14	X15	Y15	Z15	X16	Y16	Z16	X17	Y17	Z17	X18	Y18	Z18	X19	Y19	Z19	X20	Y20	Z20	X21	Y21	Z21	X22	Y22	Z22	X23	Y23	Z23	X24	Y24	Z24	X25	Y25	Z25	X26	Y26	Z26	X27	Y27	Z27	X28	Y28	Z28	X29	Y29	Z29	X30	Y30	Z30	X31	Y31	Z31	X32	Y32	Z32	X33	Y33	Z33	X34	Y34	Z34	X35	Y35	Z35	X36	Y36	Z36	X37	Y37	Z37	X38	Y38	Z38	X39	Y39	Z39	X40	Y40	Z40	X41	Y41	Z41	X42	Y42	Z42	X43	Y43	Z43	X44	Y44	Z44	X45	Y45	Z45	X46	Y46	Z46	X47	Y47	Z47	X48	Y48	Z48	X49	Y49	Z49	X50	Y50	Z50	X51	Y51	Z51	X52	Y52	Z52	

68	0.67	561.0346679687501	944.1802978515627	-353.7822570800782	369.1013488769532	972.9027099609377	-250.1110382080079	373.3880310058594	962.3533325195315	-165.7044372558594	560.7059936523439	951.2117919921877	-85.69583892822267	453.7690429687501	880.2274169921877	-398.7905578613282	357.6941833496094	461.4026184082032	-371.8459167480469	358.4371032714844	472.950653076172	-232.6773071289063	323.0601196289063	421.616912841797	-371.9649658203126	369.8567504882813	369.9256286621094	-320.5330200195313	121.3627471923828	116.7518157958985	-327.4170227050782	150.6144714355469	124.1625900268555	-235.1803588867188	65.02614593505861	107.0804748535157	-272.9346923828126	232.0579681396485	20.49974632263184	-235.5289916992188	239.3645019531251	29.91628646850587	-296.6171264648438	192.9507904052735	19.92762756347657	-344.5200500488282	499.534881591797	860.0582275390627	-26.90877342224122	661.1061401367189	467.9197387695314	-78.14155578613283	654.5128784179689	472.4244995117189	-202.1728515625001	648.0998535156251	420.5260314941407	-76.61917114257814	714.3694458007814	416.310272216797	-129.6976776123047	683.9365234375001	62.58767318725587	-102.9181671142578	724.6923217773439	88.06348419189455	-186.4686431884766	660.1488647460939	18.42021369934082	-151.0274047851563	848.6639404296877	32.13928222656251	-170.111572265625	851.1828613281252	49.97200012207033	-117.5445938110352	797.8057861328127	24.55937767028809	-70.37717437744142	396.5475463867189	1476.256225585938	-217.8834991455079	340.3280334472657	1185.05712890625	-216.2173156738282	586.0916137695314	1218.392211914063	-222.4030456542969	533.0407714843751	1386.842651367188	-218.1318969726563	333.4635009765626	1264.4111328125	-339.4520568847657	358.4881896972657	1411.105590820313	-314.0237121582032	437.0331420898439	1404.94482421875	-409.1365661621095	486.210418701172	1407.747314453125	-411.6271972656251	540.0374145507814	1112.637573242188	-509.9764709472657	503.6721801757814	1075.863525390625	-428.9362792968751	509.7931518554689	1059.861328125	-486.4371948242189	764.1012573242189	979.7368774414065	-422.5877685546876	739.1848144531251	939.8647460937502	-484.7630004882814	844.5684204101565	945.2864990234377	-415.8086547851564	788.8684692382815	877.3179931640627	-475.1712951660157	325.8766174316407	1258.303588867188	-96.00344848632815	360.8954162597657	1406.76806640625	-119.9468154907227	433.7385559082032	1389.862182617188	-19.2743091583252	483.8057556152345	1385.948608398438	-10.36892318725586	436.2513427734376	1086.741088867188	61.84642410278322	390.3207092285157	1081.94677734375	-18.53978157043457	388.5868225097657	1062.797119140625	42.19804000854493	536.6057739257814	832.6248168945315	11.34938907623291	486.098358154297	826.6049804687502	68.73003387451173	563.8377075195314	744.6602172851564	13.15134716033936	480.3348693847657	759.7959594726564	74.69411468505861	
69	0.68	573.8265380859376	945.3604125976565	-351.9551391601563	381.6368713378907	973.751403808594	-249.436996459961	385.8712768554689	963.947204589844	-164.82470703125	573.2568969726564	953.5493164062502	-84.10345458984376	467.328338623047	880.1223144531252	-397.5469970703126	375.7988891601563	460.831268310547	-372.5600280761719	377.8630676269532	470.5859375000001	-233.6425323486329	340.3175354003907	421.7700805664064	-373.0311889648438	386.3428955078126	368.5950012207032	-322.5564575195313	129.4600982666016	124.0671768188477	-327.7903137207032	159.8858947753907	129.2992858886719	-236.1851043701172	73.94316864013673	117.4853973388672	-272.4506225585938	232.7053222656251	20.74018096923828	-235.6822204589844	240.2707214355469	30.03157806396485	-296.8388977050782	194.4838409423829	22.2296142578125	-344.2327270507813	512.0850219726564	862.343688964844	-25.55149269104005	671.5878906250001	469.0071716308595	-77.48381805419923	664.9815673828126	473.7844848632814	-201.262435913086	657.9636840820314	421.6580200195314	-75.8828811645508	723.6155395507814	416.2106933593751	-129.3665466308594	684.8813476562501	62.74169921875001	-102.8453369140625	725.6750488281251	87.21025848388673	-186.779052734375	659.7927246093751	18.92094612121582	-150.6468353271485	849.1754150390627	29.05504798889161	-170.3731231689453	852.820983886719	46.51774215698243	-117.2202072143555	797.8441162109377	22.90984725952149	-70.06588745117189	408.5177307128907	1477.490234375	-215.0735015869141	352.7716674804688	1186.18603515625	-214.3084259033204	598.5337524414064	1220.113403320313	-220.7808532714844	545.2521362304689	1388.376708984375	-215.9308471679688	345.3720703125001	1266.132080078125	-337.3021545410157	370.3872985839844	1412.802368164063	-311.3148193359376	448.7419433593751	1406.950439453125	-406.5991516113282	497.9015197753907	1409.572875976563	-409.2718505859376	547.7365722656251	1113.541748046875	-507.8026733398439	510.9000244140626	1077.8505859375	-426.7624816894532	516.7732543945314	1061.271362304688	-483.9964599609376	770.0505371093752	976.414001464844	-422.1549072265626	743.9048461914064	937.122741699219	-484.1298828125001	849.8134765625002	940.597351074219	-416.068084716797	792.4421386718752	873.604187011719	-474.8941955566407	339.0036010742188	1259.117797851563	-93.52515411376955	373.4576110839844	1407.607788085938	-117.181640625	446.6018066406251	1390.629150390625	-16.65607261657715	496.7848510742189	1386.706665039063	-8.126267433166506	451.1241149902345	1087.168579101563	63.26596450805665	404.8008117675782	1082.372802734375	-16.88961791992188	403.4305114746095	1063.258666992188	43.76476669311524	551.1060180664064	832.9031982421877	12.68500328063965	500.7158203125001	827.1624755859377	70.32939910888673	577.9244384765626	744.7847900390626	14.41126728057862	494.8641052246095	760.3316040039064	76.42346954345705	
70	0.6900000000000001	586.4113159179689	946.709899902344	-350.1335449218751	394.0520935058595	974.747985839844	-248.6639404296876	398.2885131835939	965.6938476562502	-163.8660278320313	585.7454833984376	955.9802856445315	-82.51084899902345	480.8251953125001	880.1541748046877	-396.2208557128907	394.919891357422	460.2293090820314	-373.4901428222657	398.7930908203126	468.0126342773439	-234.8172607421876	358.6894531250001	421.9362792968751	-374.3161010742188	403.9800109863282	367.3148193359376	-324.8754272460938	138.9161987304688	131.7615661621094	-327.9956970214844	170.7682037353516	134.6439971923828	-237.103256225586	84.54664611816408	128.3121337890625	-271.6881713867188	234.3075103759766	21.35953712463379	-236.1221160888672	242.0523376464844	30.51880836486817	-297.2791748046876	196.9844970703126	25.28260040283204	-344.0923461914063	524.4233398437501	864.655700683594	-24.15238952636719	681.1986083984376	469.9399719238282	-76.74447631835939	674.5599365234376	474.980194091797	-200.3295898437501	666.9381713867189	422.636688232422	-75.12236785888673	732.0671997070314	416.017791748047	-128.9081420898438	685.6330566406251	62.93975067138673	-102.7539749145508	726.4913940429689	86.58692169189455	-187.017074584961	659.5157470703126	19.36231803894043	-150.2951202392578	849.5769042968752	26.7876091003418	-170.5303344726563	854.3563232421877	43.81666564941407	-116.7655105590821	797.8108520507815	21.80285072326661	-69.65097045898439	420.4261474609376	1478.870239257813	-212.3068542480469	365.1535339355469	1187.470581054688	-212.3471374511719	610.9097290039064	1222.005981445313	-219.2455139160157	557.4159545898439	1390.078369140625	-213.804916381836	357.2066650390626	1268.005859375	-335.1534118652344	382.1918334960938	1414.63427734375	-308.6344909667969	460.3336181640626	1409.109130859375	-404.1001281738282	509.4718017578126	1411.56787109375	-406.9624938964845	555.3474121093751	1114.641235351563	-505.6212768554689	517.9207763671876	1080.104248046875	-424.6040954589845	523.5840454101564	1062.958374023438	-481.5861816406251	775.5238037109377	972.7456054687502	-421.8437805175782	748.0625000000001	934.182800292969	-483.6522827148439	854.4576416015627	935.3011474609377	-416.4476318359376	795.264587402344	869.5908813476565	-474.8509216308595	352.2145996093751	1260.09375	-90.97318267822267	386.031707763672	1408.603149414063	-114.4336853027344	459.4735717773439	1391.63671875	-14.06688976287842	509.827850341797	1387.719970703125	-5.930991649627686	466.1036682128907	1087.8623046875	64.74112701416017	419.3703002929689	1083.041015625	-15.17105102539063	418.3836975097657	1063.953735351563	45.40787506103516	565.9256591796876	833.4986572265627	14.03917884826661	515.5574951171876	828.0249633789065	71.96749877929689	592.3538818359376	745.2483520507814	15.67058181762696	509.710662841797	761.1535644531251	78.19506835937501	
71	0.7000000000000001	598.7311401367189	948.1839599609377	-348.3634338378907	406.2952575683595	975.8699951171877	-247.7615966796876	410.6086425781251	967.556823730469	-162.8046875	598.1523437500001	958.4235839843752	-80.9567337036133	494.1642150878907	880.3223876953127	-394.808807373047	414.9586181640626	459.6287231445314	-374.6051025390626	421.0906677246095	465.3472290039064	-236.1583404541016	378.1080322265626	422.1294555664064	-375.7796936035157	422.7090759277345	366.1406555175782	-327.3923950195313	149.7969818115235	139.7274627685547	-328.0298461914063	183.275634765625	140.1398010253907	-237.9030303955079	96.84490203857425	139.3379211425782	-270.6782226562501	237.2086639404297	22.43939208984375	-236.8933105468751	245.0296020507813	31.47616195678712	-297.9724121093751	200.7458801269532	29.13620758056641	-344.1414489746094	536.5462036132814	866.9429931640627	-22.71942329406739	689.8952636718751	470.6819763183595	-75.93138885498048	683.1703491210939	475.9612731933595	-199.3910675048829	674.9812622070314	423.4264526367189	-74.34413909912111	739.6956176757814	415.7159423828126	-128.3377380371094	686.2537841796876	63.15656661987306	-102.6471710205078	727.2113037109376	86.16645812988283	-187.1836395263672	659.3620605468751	19.73144340515137	-149.9820251464844	849.9283447265627	25.27637100219727	-170.6231079101563	855.826599121094	41.82637023925782	-116.2366561889649	797.788269042969	21.1657772064209	-69.17593383789064	432.2646789550782	1480.362670898438	-209.596176147461	377.4438781738282	1188.885986328125	-210.3440551757813	623.1931152343751	1224.013793945313	-217.8167877197266	569.5111083984376	1391.90380859375	-211.7785339355469	368.9312133789063	1269.97509765625	-332.9869384765626	393.8748168945314	1416.551879882813	-305.9848022460938	471.7640075683595	1411.366821289063	-401.6568908691407	520.8756713867189	1413.685424804688	-404.7251281738282	562.8983154296876	1115.901611328125	-503.4507751464845	524.8140258789064	1082.537109375	-422.4522705078126	530.2681274414064	1064.886596679688	-479.2283630371095	780.5363769531252	968.7641601562502	-421.6510620117189	751.7058105468751	931.084167480469	-483.3403930664064	858.4996337890627	929.4340820312502	-416.9213256835939	797.3828125000002	865.3350219726565	-475.050506591797	365.4756469726563	1261.209594726563	-88.3573455810547	398.6060485839845	1409.724365234375	-111.7196502685547	472.3631896972657	1392.839965820313	-11.52757835388184	522.9370117187501	1388.945678710938	-3.804051160812379	481.1582336425782	1088.789306640625	66.28191375732423	433.9940185546876	1083.911499023438	-13.36634635925293	433.4170837402345	1064.843505859375	47.14151000976563	581.0709838867189	834.3941650390627	15.40571117401123	530.6287841796876	829.1604614257815	73.6349563598633	607.1641845703126	746.0520629882814	16.91761016845703	524.8929443359376	762.2267456054689	79.99070739746095	
